<?xml version="1.0" encoding="UTF-8" standalone="no"?>
<!DOCTYPE svg PUBLIC "-//W3C//DTD SVG 1.1//EN" "http://www.w3.org/Graphics/SVG/1.1/DTD/svg11.dtd">
<svg width="100%" height="100%" viewBox="0 0 1080 1080" version="1.1" xmlns="http://www.w3.org/2000/svg" xmlns:xlink="http://www.w3.org/1999/xlink" xml:space="preserve" style="fill-rule:evenodd;clip-rule:evenodd;stroke-linejoin:round;stroke-miterlimit:1.41421;">
    <g>
        <path d="M183.271,584.706L147.203,584.706L147.203,434.446L22.158,434.446L22.158,398.377L452.144,398.377L452.144,434.446L327.099,434.446L327.099,584.706L291.031,584.706L291.031,434.446L183.271,434.446L183.271,584.706Z" style="fill:white;"/>
        <g transform="matrix(0.941372,0,0,0.941372,-5.30459,41.872)">
            <path d="M589.755,377.784C591.575,377.793 593.395,377.844 595.212,377.948C598.684,378.146 602.146,378.525 605.579,379.083C614.091,380.468 622.417,382.966 630.285,386.496C640.368,391.021 649.679,397.233 657.745,404.787C666.014,412.532 672.962,421.674 678.191,431.726C682.576,440.158 685.744,449.214 687.564,458.542C689.673,469.353 689.979,480.516 688.486,491.428C687.797,496.459 686.723,501.438 685.273,506.306C683.792,511.281 681.919,516.139 679.679,520.821C677.117,526.176 674.076,531.3 670.607,536.116C667.098,540.986 663.152,545.541 658.832,549.709C654.365,554.019 649.499,557.915 644.315,561.329C639.176,564.713 633.726,567.621 628.053,570.002C621.81,572.622 615.3,574.6 608.655,575.896C602.432,577.11 596.095,577.725 589.755,577.745C583.408,577.766 577.059,577.19 570.822,576.014C564.164,574.759 557.637,572.819 551.373,570.236C545.684,567.889 540.214,565.013 535.053,561.659C529.848,558.276 524.958,554.409 520.465,550.125C516.121,545.982 512.148,541.452 508.61,536.602C505.113,531.809 502.042,526.705 499.448,521.368C497.181,516.701 495.279,511.858 493.768,506.895C492.29,502.041 491.185,497.073 490.465,492.051C488.917,481.249 489.137,470.191 491.125,459.461C492.859,450.108 495.945,441.013 500.258,432.534C505.396,422.432 512.263,413.225 520.465,405.405C528.534,397.712 537.881,391.374 548.025,386.747C555.866,383.171 564.17,380.622 572.667,379.185C576.093,378.606 579.548,378.207 583.015,377.986C584.829,377.871 586.645,377.808 588.463,377.788C588.894,377.785 589.324,377.783 589.755,377.784ZM589.23,416.099C585.822,416.115 582.418,416.395 579.056,416.964C573.961,417.826 568.98,419.337 564.266,421.453C558.322,424.12 552.813,427.741 547.993,432.122C542.994,436.667 538.739,442.025 535.458,447.931C532.662,452.966 530.581,458.393 529.301,464.009C528.289,468.452 527.78,473.006 527.766,477.563C527.757,480.461 527.946,483.36 528.339,486.231C529.178,492.36 530.953,498.352 533.588,503.949C536.76,510.683 541.163,516.824 546.503,522.008C551.98,527.324 558.434,531.624 565.465,534.599C569.291,536.219 573.282,537.445 577.357,538.253C581.199,539.015 585.113,539.405 589.029,539.43C592.958,539.455 596.89,539.114 600.754,538.398C604.845,537.64 608.857,536.462 612.708,534.887C619.776,531.997 626.283,527.774 631.824,522.522C637.225,517.403 641.701,511.316 644.954,504.622C647.653,499.067 649.5,493.106 650.415,486.997C650.882,483.876 651.108,480.719 651.098,477.563C651.084,473.325 650.644,469.088 649.767,464.941C648.574,459.298 646.575,453.832 643.852,448.749C640.631,442.738 636.409,437.272 631.418,432.625C626.605,428.145 621.083,424.432 615.108,421.685C610.419,419.528 605.457,417.971 600.376,417.063C597.029,416.464 593.637,416.152 590.237,416.103C589.902,416.1 589.566,416.098 589.23,416.099Z" style="fill:white;fill-rule:nonzero;"/>
        </g>
        <path d="M1010.36,563.456C1007.46,565.915 1004.41,568.2 1001.24,570.292C996.398,573.477 991.267,576.215 985.927,578.456C980.05,580.922 973.921,582.785 967.666,584.005C961.808,585.148 955.842,585.727 949.874,585.746C943.899,585.764 937.923,585.223 932.051,584.116C925.784,582.934 919.639,581.108 913.743,578.676C908.387,576.467 903.238,573.759 898.38,570.602C893.479,567.417 888.876,563.777 884.647,559.744C880.557,555.845 876.817,551.579 873.487,547.014C870.194,542.502 867.303,537.697 864.862,532.673C862.728,528.28 860.937,523.721 859.515,519.049C858.123,514.479 857.084,509.803 856.406,505.075C854.949,494.907 855.155,484.496 857.027,474.396C858.659,465.591 861.564,457.029 865.624,449.048C870.461,439.538 876.925,430.871 884.647,423.509C892.242,416.267 901.042,410.3 910.591,405.945C917.972,402.578 925.79,400.179 933.789,398.827C937.013,398.281 940.266,397.905 943.529,397.698C945.237,397.59 946.947,397.53 948.658,397.511C949.064,397.508 949.469,397.507 949.874,397.507C951.588,397.515 953.301,397.564 955.011,397.662C958.28,397.848 961.539,398.205 964.77,398.73C972.784,400.034 980.621,402.385 988.028,405.709C996.088,409.326 1003.62,414.088 1010.36,419.797L1010.36,401.909L1046.43,401.909L1046.43,584.554L1010.36,584.554L1010.36,563.456ZM949.38,433.576C946.172,433.591 942.967,433.855 939.803,434.39C935.007,435.201 930.317,436.625 925.879,438.616C920.284,441.127 915.099,444.535 910.561,448.66C905.854,452.938 901.849,457.982 898.761,463.542C896.129,468.282 894.169,473.391 892.965,478.677C892.012,482.86 891.533,487.147 891.52,491.437C891.511,494.165 891.689,496.893 892.059,499.596C892.849,505.366 894.519,511.007 897,516.275C899.986,522.615 904.131,528.396 909.158,533.276C914.314,538.28 920.39,542.328 927.008,545.129C930.61,546.653 934.367,547.808 938.203,548.569C941.82,549.286 945.504,549.653 949.191,549.676C952.89,549.7 956.591,549.379 960.228,548.705C964.079,547.991 967.856,546.882 971.482,545.4C978.135,542.679 984.261,538.704 989.477,533.76C994.562,528.941 998.775,523.211 1001.84,516.909C1004.38,511.68 1006.12,506.068 1006.98,500.318C1007.42,497.379 1007.63,494.408 1007.62,491.437C1007.61,487.447 1007.19,483.458 1006.37,479.554C1005.25,474.243 1003.36,469.097 1000.8,464.312C997.768,458.653 993.793,453.507 989.095,449.134C984.564,444.916 979.366,441.42 973.741,438.834C969.327,436.804 964.656,435.339 959.873,434.483C956.722,433.92 953.528,433.626 950.328,433.58C950.012,433.577 949.696,433.575 949.38,433.576Z" style="fill:white;"/>
        <g transform="matrix(1,0,0,1,175,210)">
            <path d="M615.364,475.399L615.364,314.701L495.369,314.701L495.369,191.909L531.438,191.909L531.438,278.632L615.364,278.632L615.364,191.909L651.433,191.909L651.433,475.399C639.41,475.399 627.387,475.399 615.364,475.399Z" style="fill:white;fill-rule:nonzero;"/>
        </g>
        <g transform="matrix(1,0,0,1,430,-70)">
            <path d="M448.438,697.325L444.021,701.909C440.743,698.853 437.743,697.325 435.021,697.325C433.299,697.325 431.854,697.867 430.688,698.95C429.521,700.034 428.938,701.367 428.938,702.95C428.938,704.534 429.59,705.922 430.896,707.117C432.201,708.311 434.521,709.784 437.854,711.534C441.188,713.284 443.757,715.214 445.563,717.325C447.368,719.436 448.271,722.02 448.271,725.075C448.271,728.964 446.924,732.242 444.229,734.909C441.535,737.575 438.215,738.909 434.271,738.909C428.771,738.909 424.188,736.575 420.521,731.909L424.854,727.075C427.854,730.575 430.91,732.325 434.021,732.325C436.132,732.325 437.938,731.631 439.438,730.242C440.938,728.853 441.688,727.228 441.688,725.367C441.688,723.506 441.007,721.95 439.646,720.7C438.285,719.45 435.951,717.992 432.646,716.325C429.34,714.659 426.84,712.811 425.146,710.784C423.451,708.756 422.604,706.089 422.604,702.784C422.604,699.478 423.813,696.659 426.229,694.325C428.646,691.992 431.84,690.825 435.813,690.825C439.785,690.825 443.993,692.992 448.438,697.325Z" style="fill:white;fill-rule:nonzero;"/>
            <path d="M498.438,737.409L491.521,737.409L491.521,715.742C491.521,711.52 491.396,708.547 491.146,706.825C490.896,705.103 490.326,703.478 489.438,701.95C488.549,700.422 487.34,699.256 485.813,698.45C484.285,697.645 482.451,697.242 480.313,697.242C478.174,697.242 476.132,697.742 474.188,698.742C472.243,699.742 470.576,701.131 469.188,702.909C467.799,704.686 466.84,706.575 466.313,708.575C465.785,710.575 465.521,714.575 465.521,720.575L465.521,737.409L458.604,737.409L458.604,674.909L465.521,674.909L465.521,698.825C470.021,693.492 475.354,690.825 481.521,690.825C484.799,690.825 487.771,691.672 490.438,693.367C493.104,695.061 495.104,697.395 496.438,700.367C497.771,703.339 498.438,707.909 498.438,714.075L498.438,737.409Z" style="fill:white;fill-rule:nonzero;"/>
            <path d="M532.521,690.825C539.076,690.825 544.646,693.186 549.229,697.909C553.813,702.631 556.104,708.297 556.104,714.909C556.104,721.52 553.84,727.172 549.313,731.867C544.785,736.561 539.188,738.909 532.521,738.909C525.854,738.909 520.243,736.561 515.688,731.867C511.132,727.172 508.854,721.52 508.854,714.909C508.854,708.297 511.146,702.631 515.729,697.909C520.313,693.186 525.91,690.825 532.521,690.825ZM532.521,732.325C537.132,732.325 541.063,730.645 544.313,727.284C547.563,723.922 549.188,719.867 549.188,715.117C549.188,710.367 547.535,706.256 544.229,702.784C540.924,699.311 537.007,697.575 532.479,697.575C527.951,697.575 524.049,699.311 520.771,702.784C517.493,706.256 515.854,710.381 515.854,715.159C515.854,719.936 517.438,723.992 520.604,727.325C523.771,730.659 527.743,732.325 532.521,732.325Z" style="fill:white;fill-rule:nonzero;"/>
            <path d="M573.938,698.909C578.438,693.52 583.993,690.825 590.604,690.825C597.215,690.825 602.826,693.172 607.438,697.867C612.049,702.561 614.354,708.214 614.354,714.825C614.354,721.436 612.076,727.103 607.521,731.825C602.965,736.547 597.465,738.909 591.021,738.909C584.576,738.909 578.882,736.186 573.938,730.742L573.938,753.492L567.104,753.492L567.104,691.992L573.938,691.992L573.938,698.909ZM590.604,732.492C595.16,732.492 599.118,730.784 602.479,727.367C605.84,723.95 607.521,719.825 607.521,714.992C607.521,710.159 605.868,706.034 602.563,702.617C599.257,699.2 595.215,697.492 590.438,697.492C585.66,697.492 581.646,699.172 578.396,702.534C575.146,705.895 573.521,710.047 573.521,714.992C573.521,719.936 575.188,724.089 578.521,727.45C581.854,730.811 585.882,732.492 590.604,732.492Z" style="fill:white;fill-rule:nonzero;"/>
        </g>
        <g transform="matrix(1,0,0,1,7,0)">
            <path d="M573.591,477.288C577.705,480.068 577.751,480.113 580.531,484.228L581.559,489.275L581.559,489.295L580.531,494.342C577.751,498.457 577.705,498.502 573.591,501.282L568.544,502.31L516.248,502.31L511.201,501.282C507.087,498.502 507.041,498.456 504.261,494.342L503.234,489.295L503.234,489.275L504.261,484.228C507.041,480.113 507.087,480.068 511.201,477.288L516.248,476.26L568.544,476.26C570.226,476.603 571.909,476.945 573.591,477.288Z" style="fill:white;fill-rule:nonzero;"/>
        </g>
        <g transform="matrix(1,0,0,1,404,0)">
            <path d="M573.591,477.288C577.706,480.068 577.751,480.113 580.531,484.228L581.559,489.275L581.559,489.295L580.531,494.342C577.751,498.456 577.706,498.502 573.591,501.282L568.544,502.31L516.248,502.31L511.201,501.282C507.087,498.502 507.041,498.456 504.261,494.342L503.234,489.295L503.234,489.275L504.261,484.228C507.041,480.113 507.087,480.068 511.201,477.288L516.248,476.26L568.544,476.26C570.226,476.603 571.909,476.945 573.591,477.288Z" style="fill:white;fill-rule:nonzero;"/>
        </g>
    </g>
</svg>
